<svg xmlns="http://www.w3.org/2000/svg" xmlns:xlink="http://www.w3.org/1999/xlink" width="500" zoomAndPan="magnify" viewBox="0 0 375 374.999991" height="500" preserveAspectRatio="xMidYMid meet" version="1.0"><defs><g/><clipPath id="aff4ebea8a"><path d="M 0 127.339844 L 126.332031 127.339844 L 126.332031 247.277344 L 0 247.277344 Z M 0 127.339844 " clip-rule="nonzero"/></clipPath></defs><g clip-path="url(#aff4ebea8a)"><path fill="#000000" d="M 38.917969 138.40625 L 66.199219 138.40625 C 93.171875 138.40625 115.253906 160.417969 115.253906 187.300781 C 115.253906 214.199219 93.171875 236.210938 66.199219 236.210938 L 38.917969 236.210938 L 38.917969 225.152344 L 66.199219 225.152344 C 87.085938 225.152344 104.179688 208.132812 104.179688 187.300781 C 104.179688 166.484375 87.085938 149.464844 66.199219 149.464844 L 64.601562 149.464844 C 62.6875 146.015625 59.019531 143.695312 54.792969 143.695312 C 50.566406 143.695312 46.898438 146.015625 44.984375 149.464844 C 44.082031 151.058594 43.578125 152.914062 43.578125 154.871094 C 43.578125 156.933594 44.132812 158.839844 45.089844 160.503906 C 47.039062 163.832031 50.65625 166.050781 54.792969 166.050781 C 58.933594 166.050781 62.550781 163.832031 64.496094 160.503906 L 66.199219 160.503906 C 80.980469 160.503906 93.085938 172.570312 93.085938 187.300781 C 93.085938 202.050781 80.980469 214.113281 66.199219 214.113281 L 16.761719 214.113281 L 16.761719 163.886719 C 20.152344 161.960938 22.433594 158.320312 22.433594 154.164062 C 22.433594 147.992188 17.40625 142.984375 11.214844 142.984375 C 5.027344 142.984375 0 147.992188 0 154.164062 C 0 158.320312 2.296875 161.960938 5.667969 163.886719 L 5.667969 225.152344 L 27.839844 225.152344 L 27.839844 247.25 L 66.199219 247.25 C 99.273438 247.25 126.332031 220.28125 126.332031 187.300781 C 126.332031 154.335938 99.273438 127.367188 66.199219 127.367188 L 27.839844 127.367188 L 27.839844 188.582031 C 24.449219 190.507812 22.171875 194.128906 22.171875 198.304688 C 22.171875 204.476562 27.179688 209.484375 33.386719 209.484375 C 39.578125 209.484375 44.601562 204.476562 44.601562 198.304688 C 44.601562 194.128906 42.308594 190.507812 38.917969 188.582031 Z M 54.792969 150.46875 C 57.226562 150.46875 59.210938 152.445312 59.210938 154.871094 C 59.210938 157.316406 57.226562 159.292969 54.792969 159.292969 C 52.359375 159.292969 50.375 157.316406 50.375 154.871094 C 50.375 152.445312 52.359375 150.46875 54.792969 150.46875 Z M 15.632812 154.164062 C 15.632812 156.589844 13.652344 158.5625 11.214844 158.5625 C 8.78125 158.5625 6.800781 156.589844 6.800781 154.164062 C 6.800781 151.734375 8.78125 149.761719 11.214844 149.761719 C 13.652344 149.761719 15.632812 151.734375 15.632812 154.164062 Z M 33.386719 193.902344 C 35.820312 193.902344 37.804688 195.863281 37.804688 198.304688 C 37.804688 200.730469 35.820312 202.707031 33.386719 202.707031 C 30.933594 202.707031 28.953125 200.730469 28.953125 198.304688 C 28.953125 195.863281 30.933594 193.902344 33.386719 193.902344 Z M 33.386719 193.902344 " fill-opacity="1" fill-rule="evenodd"/></g><g fill="#000000" fill-opacity="1"><g transform="translate(134.855189, 204.571512)"><g><path d="M 3.953125 -33.34375 L 19.109375 -33.34375 C 22.722656 -33.34375 25.921875 -32.648438 28.703125 -31.265625 C 31.484375 -29.890625 33.644531 -27.945312 35.1875 -25.4375 C 36.726562 -22.925781 37.5 -20.003906 37.5 -16.671875 C 37.5 -13.335938 36.726562 -10.414062 35.1875 -7.90625 C 33.644531 -5.394531 31.484375 -3.445312 28.703125 -2.0625 C 25.921875 -0.6875 22.722656 0 19.109375 0 L 3.953125 0 Z M 18.71875 -6.34375 C 22.050781 -6.34375 24.710938 -7.269531 26.703125 -9.125 C 28.691406 -10.976562 29.6875 -13.492188 29.6875 -16.671875 C 29.6875 -19.847656 28.691406 -22.363281 26.703125 -24.21875 C 24.710938 -26.082031 22.050781 -27.015625 18.71875 -27.015625 L 11.671875 -27.015625 L 11.671875 -6.34375 Z M 18.71875 -6.34375 "/></g></g></g><g fill="#000000" fill-opacity="1"><g transform="translate(179.19316, 204.571512)"><g><path d="M 29.78125 -6.1875 L 29.78125 0 L 3.953125 0 L 3.953125 -33.34375 L 29.15625 -33.34375 L 29.15625 -27.15625 L 11.625 -27.15625 L 11.625 -19.90625 L 27.109375 -19.90625 L 27.109375 -13.90625 L 11.625 -13.90625 L 11.625 -6.1875 Z M 29.78125 -6.1875 "/></g></g></g><g fill="#000000" fill-opacity="1"><g transform="translate(216.149658, 204.571512)"><g><path d="M 36.015625 -33.34375 L 21.578125 0 L 13.953125 0 L -0.421875 -33.34375 L 7.90625 -33.34375 L 18.0625 -9.53125 L 28.34375 -33.34375 Z M 36.015625 -33.34375 "/></g></g></g><g fill="#000000" fill-opacity="1"><g transform="translate(256.677827, 204.571512)"><g><path d="M 29.78125 -6.1875 L 29.78125 0 L 3.953125 0 L 3.953125 -33.34375 L 29.15625 -33.34375 L 29.15625 -27.15625 L 11.625 -27.15625 L 11.625 -19.90625 L 27.109375 -19.90625 L 27.109375 -13.90625 L 11.625 -13.90625 L 11.625 -6.1875 Z M 29.78125 -6.1875 "/></g></g></g><g fill="#000000" fill-opacity="1"><g transform="translate(293.634329, 204.571512)"><g><path d="M 14.90625 0.578125 C 12.269531 0.578125 9.722656 0.21875 7.265625 -0.5 C 4.804688 -1.21875 2.828125 -2.144531 1.328125 -3.28125 L 3.953125 -9.09375 C 5.378906 -8.050781 7.078125 -7.210938 9.046875 -6.578125 C 11.015625 -5.941406 12.984375 -5.625 14.953125 -5.625 C 17.148438 -5.625 18.769531 -5.945312 19.8125 -6.59375 C 20.863281 -7.25 21.390625 -8.113281 21.390625 -9.1875 C 21.390625 -9.988281 21.078125 -10.648438 20.453125 -11.171875 C 19.835938 -11.691406 19.046875 -12.109375 18.078125 -12.421875 C 17.109375 -12.742188 15.800781 -13.097656 14.15625 -13.484375 C 11.613281 -14.085938 9.53125 -14.691406 7.90625 -15.296875 C 6.289062 -15.898438 4.898438 -16.867188 3.734375 -18.203125 C 2.578125 -19.535156 2 -21.3125 2 -23.53125 C 2 -25.46875 2.519531 -27.222656 3.5625 -28.796875 C 4.613281 -30.367188 6.195312 -31.613281 8.3125 -32.53125 C 10.425781 -33.457031 13.007812 -33.921875 16.0625 -33.921875 C 18.1875 -33.921875 20.265625 -33.664062 22.296875 -33.15625 C 24.328125 -32.644531 26.101562 -31.914062 27.625 -30.96875 L 25.25 -25.109375 C 22.164062 -26.859375 19.082031 -27.734375 16 -27.734375 C 13.84375 -27.734375 12.25 -27.378906 11.21875 -26.671875 C 10.1875 -25.972656 9.671875 -25.054688 9.671875 -23.921875 C 9.671875 -22.773438 10.265625 -21.921875 11.453125 -21.359375 C 12.648438 -20.804688 14.46875 -20.257812 16.90625 -19.71875 C 19.445312 -19.113281 21.523438 -18.507812 23.140625 -17.90625 C 24.765625 -17.300781 26.15625 -16.347656 27.3125 -15.046875 C 28.476562 -13.742188 29.0625 -11.984375 29.0625 -9.765625 C 29.0625 -7.859375 28.53125 -6.117188 27.46875 -4.546875 C 26.40625 -2.972656 24.804688 -1.722656 22.671875 -0.796875 C 20.546875 0.117188 17.957031 0.578125 14.90625 0.578125 Z M 14.90625 0.578125 "/></g></g></g><g fill="#000000" fill-opacity="1"><g transform="translate(329.019282, 204.571512)"><g><path d="M 34.546875 -33.34375 L 34.546875 0 L 26.828125 0 L 26.828125 -13.671875 L 11.671875 -13.671875 L 11.671875 0 L 3.953125 0 L 3.953125 -33.34375 L 11.671875 -33.34375 L 11.671875 -20.203125 L 26.828125 -20.203125 L 26.828125 -33.34375 Z M 34.546875 -33.34375 "/></g></g></g></svg>